<svg xmlns="http://www.w3.org/2000/svg" xmlns:xlink="http://www.w3.org/1999/xlink" aria-hidden="true" role="img" class="iconify iconify--logos" width="31.88" height="32" preserveAspectRatio="xMidYMid meet" viewBox="0 0 256 257"><defs><linearGradient id="IconifyId1813088fe1fbc01fb466" x1="252.678" y1="253.276" x2="2.618" y2="3.216" gradientUnits="userSpaceOnUse"><stop offset="0" stop-color="#41D1FF"/><stop offset="1" stop-color="#BD34FE"/></linearGradient><linearGradient id="IconifyId1813088fe1fbc01fb467" x1="252.678" y1="253.276" x2="2.618" y2="3.216" gradientUnits="userSpaceOnUse"><stop offset="0" stop-color="#FFEA83"/><stop offset="0.083" stop-color="#FFDD35"/><stop offset="1" stop-color="#FFA800"/></linearGradient></defs><path d="M255.153 166.387c-2.724 35.843-20.395 68.96-49.52 90.873c-29.124 21.912-65.482 31.912-101.41 26.387c-35.928-5.525-67.653-26.69-89.248-57.92C.84 195.34-5.27 155.852 4.418 118.33c9.688-37.522 35.844-68.63 72.884-86.29C114.342 14.38 156.458 4.23 195.42 10.337c38.962 6.107 72.58 28.51 94.61 62.133c22.03 33.622 30.22 75.488 25.123 115.936l-.16.14z" fill="url(#IconifyId1813088fe1fbc01fb466)"/><path d="M185.12 1.48C142.23-3.613 98.53 9.49 66.86 36.88C35.19 64.27 17.06 102.6 17.52 143.19c.46 40.59 20.38 78.53 50.82 102.2c30.44 23.67 70.52 32.83 109.81 25.04c39.29-7.79 71.16-32.32 89.2-66.07c18.04-33.75 21.2-74.07 9.17-111.43c-12.03-37.36-40.45-66.5-77.41-79.45z" fill="url(#IconifyId1813088fe1fbc01fb467)"/><path d="M185.12 1.48L121.97 97.4l34.42 1.48l-38.8 84.89l96.1-118.23c-9.2-11.58-19.8-21.8-31.28-30.22c-11.47-8.43-24.1-14.88-37.29-19.34z" fill="#fff"/></svg>